<svg xmlns="http://www.w3.org/2000/svg">

    <symbol id="arrow" viewBox="0 0 320 512">
        <path fill="currentColor"
            d="M151.5 347.8L3.5 201c-4.7-4.7-4.7-12.3 0-17l19.8-19.8c4.7-4.7 12.3-4.7 17 0L160 282.7l119.7-118.5c4.7-4.7 12.3-4.7 17 0l19.8 19.8c4.7 4.7 4.7 12.3 0 17l-148 146.8c-4.7 4.7-12.3 4.7-17 0z">
        </path>
    </symbol>

    <symbol id="facebook" viewBox="0 0 320 512">
        <path fill="currentColor"
            d="M279.14 288l14.22-92.66h-88.91v-60.13c0-25.35 12.42-50.06 52.24-50.06h40.42V6.26S260.43 0 225.36 0c-73.22 0-121.08 44.38-121.08 124.72v70.62H22.89V288h81.39v224h100.17V288z">
        </path>
    </symbol>

    <symbol id="instagram" viewBox="0 0 448 512">
        <path fill="currentColor"
            d="M224.1 141c-63.6 0-114.9 51.3-114.9 114.9s51.3 114.9 114.9 114.9S339 319.5 339 255.9 287.7 141 224.1 141zm0 189.6c-41.1 0-74.7-33.5-74.7-74.7s33.5-74.7 74.7-74.7 74.7 33.5 74.7 74.7-33.6 74.7-74.7 74.7zm146.4-194.3c0 14.9-12 26.8-26.8 26.8-14.9 0-26.8-12-26.8-26.8s12-26.8 26.8-26.8 26.8 12 26.8 26.8zm76.1 27.2c-1.7-35.9-9.9-67.7-36.2-93.9-26.2-26.2-58-34.4-93.9-36.2-37-2.1-147.9-2.1-184.9 0-35.8 1.7-67.6 9.9-93.9 36.1s-34.4 58-36.2 93.9c-2.1 37-2.1 147.9 0 184.9 1.7 35.9 9.9 67.7 36.2 93.9s58 34.4 93.9 36.2c37 2.1 147.9 2.1 184.9 0 35.9-1.7 67.7-9.9 93.9-36.2 26.2-26.2 34.4-58 36.2-93.9 2.1-37 2.1-147.8 0-184.8zM398.8 388c-7.8 19.6-22.9 34.7-42.6 42.6-29.5 11.7-99.5 9-132.1 9s-102.7 2.6-132.1-9c-19.6-7.8-34.7-22.9-42.6-42.6-11.7-29.5-9-99.5-9-132.1s-2.6-102.7 9-132.1c7.8-19.6 22.9-34.7 42.6-42.6 29.5-11.7 99.5-9 132.1-9s102.7-2.6 132.1 9c19.6 7.8 34.7 22.9 42.6 42.6 11.7 29.5 9 99.5 9 132.1s2.7 102.7-9 132.1z">
        </path>
    </symbol>

    <symbol id="logo" viewBox="0 0 241 54">
        <g>
            <path
                d="M25.24086,42.79054l16.64953,-0.14654l-10.81076,-18.50832l-13.6405,24.31288l-17.43917,0.15332l25.74739,-44.76724l3.22857,5.52675l-19.30523,33.56619l4.5207,-0.03969l16.79134,-29.92986l20.55559,35.18999l-28.619,0.25203zM67.67641,53.98888l-31.3098,-53.76411l0.37041,-0.21879l9.88541,16.97456v-5.31693h5.18055l4.22001,7.042l4.22039,-7.042h5.18103v18.19082h-4.87766v-10.44699l-4.52375,7.1207h-0.10071l-4.49848,-7.0688l0,5.7658l16.62302,28.54394zM70.48374,20.81075v-0.0519c0,-5.2235 4.0946,-9.45887 9.55324,-9.45887c5.45864,0 9.50203,4.18348 9.50203,9.40663v0.05224c0,5.22316 -4.0946,9.45921 -9.55324,9.45921c-5.45855,0 -9.50203,-4.18382 -9.50203,-9.40731zM84.53508,20.81075v-0.0519c0,-2.62447 -1.84469,-4.91176 -4.54931,-4.91176c-2.67859,0 -4.47283,2.23539 -4.47283,4.85952v0.05224c0,2.62481 1.84469,4.91176 4.52404,4.91176c2.70376,0 4.4981,-2.23505 4.4981,-4.85986zM94.62353,11.66361h4.57449l7.27816,9.61525v-9.61525h4.8521v18.19082h-4.29602l-7.55653,-9.97922v9.97922h-4.8522zM121.31516,16.08114h-5.30672v-4.41753h15.51685v4.41753h-5.30682v13.77328h-4.90332zM136.30529,11.66361h4.92849v18.19082h-4.92849zM146.39116,20.81075v-0.0519c0,-5.30117 3.96805,-9.45887 9.32512,-9.45887c3.61395,0 5.93853,1.55867 7.50551,3.79373l-3.68938,2.93654c-1.01089,-1.29917 -2.17361,-2.13092 -3.86639,-2.13092c-2.47641,0 -4.22049,2.1567 -4.22049,4.80728v0.05224c0,2.72894 1.74408,4.85952 4.22049,4.85952c1.84469,0 2.93093,-0.8833 3.99303,-2.2086l3.68948,2.70249c-1.66779,2.36497 -3.9176,4.1058 -7.83443,4.1058c-5.05428,0 -9.12294,-3.97588 -9.12294,-9.40731zM167.97749,11.66361h14.22834v4.28761h-9.37624v2.75439h8.49123v3.97622h-8.49123v2.88464h9.50203v4.28795h-14.35413zM187.36502,11.66361h4.90332v13.77294h8.56667v4.41787h-13.46998zM205.46394,11.66361h4.90246v13.77294h8.56752v4.41787h-13.46998zM221.94468,20.81075v-0.0519c0,-5.2235 4.0946,-9.45887 9.55334,-9.45887c5.45855,0 9.50203,4.18348 9.50203,9.40663v0.05224c0,5.22316 -4.0946,9.45921 -9.55324,9.45921c-5.45874,0 -9.50212,-4.18382 -9.50212,-9.40731zM235.99611,20.81075v-0.0519c0,-2.62447 -1.84469,-4.91176 -4.54931,-4.91176c-2.67859,0 -4.47302,2.23539 -4.47302,4.85952v0.05224c0,2.62481 1.84469,4.91176 4.52423,4.91176c2.70367,0 4.4981,-2.23505 4.4981,-4.85986zM71.49378,39.70712h0.67778v6.06067h-0.67778zM77.36927,39.70712h0.63591l3.7859,4.85681v-4.85681h0.66099v6.06067h-0.54111l-3.8806,-4.97011v4.97011h-0.66109zM89.17995,40.33839h-2.01836v-0.63127h4.72212v0.63127h-2.0175v5.4294h-0.68626zM96.5941,39.70712h4.34456v0.62279h-3.66592v2.06918h3.27911v0.62313h-3.27911v2.12108h3.70874v0.62449h-4.38738zM105.78485,39.70712h2.58465c0.73833,0 1.33047,0.2249 1.70803,0.60583c0.29182,0.29443 0.46387,0.71879 0.46387,1.19436v0.01696c0,1.00508 -0.68703,1.59361 -1.63078,1.76627l1.84555,2.47725h-0.83294l-1.74246,-2.35547h-1.71719v2.35547h-0.67873zM108.30914,42.79766c0.90179,0 1.54524,-0.46777 1.54524,-1.24626v-0.01798c0,-0.74524 -0.56629,-1.19504 -1.53685,-1.19504h-1.85394v2.45927zM115.43213,39.70712h0.63591l3.7859,4.85681v-4.85681h0.66099v6.06067h-0.54102l-3.88069,-4.97011v4.97011h-0.66109zM127.87777,39.66336h0.63515l2.73886,6.10442h-0.72975l-0.70381,-1.60243h-3.27082l-0.71306,1.60243h-0.69542zM129.55233,43.55139l-1.36576,-3.09156l-1.37329,3.09156zM136.69201,40.33839h-2.01836v-0.63127h4.72212v0.63127h-2.01759v5.4294h-0.68617zM144.16653,39.70712h0.67778v6.06067h-0.67778zM149.77613,42.75424v-0.01696c0,-1.67163 1.24483,-3.13532 3.07369,-3.13532c1.82877,0 3.05605,1.44673 3.05605,3.11768v0.01764c0,1.67027 -1.24483,3.13362 -3.07369,3.13362c-1.82877,0 -3.05605,-1.44571 -3.05605,-3.11666zM155.20206,42.75424v-0.01696c0,-1.37719 -0.99573,-2.50235 -2.36988,-2.50235c-1.37329,0 -2.35214,1.1082 -2.35214,2.48471v0.01764c0,1.37584 0.99564,2.50167 2.36979,2.50167c1.37329,0 2.35224,-1.1082 2.35224,-2.48471zM160.77896,39.70712h0.63581l3.7859,4.85681v-4.85681h0.66109v6.06067h-0.54102l-3.88079,-4.97011v4.97011h-0.66099zM173.22546,39.66336h0.63515l2.73886,6.10442h-0.72975l-0.70381,-1.60243h-3.27082l-0.71306,1.60243h-0.69542zM174.90002,43.55139l-1.36585,-3.09156l-1.3732,3.09156zM181.22431,39.70712h0.67873v5.4277h3.3824v0.63297h-4.06113zM195.72454,42.75424v-0.01696c0,-1.66281 1.2105,-3.13532 3.01323,-3.13532c1.01328,0 1.64003,0.29443 2.24066,0.80562l-0.43793,0.51933c-0.46301,-0.40603 -0.97809,-0.69199 -1.82791,-0.69199c-1.33133,0 -2.28434,1.13364 -2.28434,2.48471v0.01764c0,1.44503 0.91867,2.51931 2.37827,2.51931c0.68703,0 1.32208,-0.26865 1.73397,-0.60583v-1.50745h-1.82791v-0.61397h2.4806v2.41518c-0.5579,0.50271 -1.39933,0.92638 -2.4127,0.92638c-1.88828,0 -3.05595,-1.38499 -3.05595,-3.11666zM206.16108,39.70712h2.58465c0.73814,0 1.33038,0.2249 1.70784,0.60583c0.29202,0.29443 0.46396,0.71879 0.46396,1.19436v0.01696c0,1.00508 -0.68703,1.59361 -1.63069,1.76627l1.84546,2.47725h-0.83303l-1.74236,-2.35547h-1.71719v2.35547h-0.67863zM208.68526,42.79766c0.90179,0 1.54524,-0.46777 1.54524,-1.24626v-0.01798c0,-0.74524 -0.5662,-1.19504 -1.53685,-1.19504h-1.85394v2.45927zM215.54152,42.75424v-0.01696c0,-1.67163 1.24493,-3.13532 3.07369,-3.13532c1.82867,0 3.05595,1.44673 3.05595,3.11768v0.01764c0,1.67027 -1.24483,3.13362 -3.0736,3.13362c-1.82877,0 -3.05605,-1.44571 -3.05605,-3.11666zM220.96745,42.75424v-0.01696c0,-1.37719 -0.99573,-2.50235 -2.36988,-2.50235c-1.37329,0 -2.35224,1.1082 -2.35224,2.48471v0.01764c0,1.37584 0.99573,2.50167 2.36988,2.50167c1.3732,0 2.35224,-1.1082 2.35224,-2.48471zM226.45117,43.23049v-3.52337h0.67787v3.48029c0,1.30698 0.68703,2.04306 1.83716,2.04306c1.10817,0 1.81198,-0.67605 1.81198,-1.99998v-3.52337h0.67778v3.47181c0,1.76559 -1.00403,2.68349 -2.50654,2.68349c-1.48573,0 -2.49825,-0.9179 -2.49825,-2.63193zM236.50108,39.70712h2.24991c1.35641,0 2.24905,0.72693 2.24905,1.92196v0.01696c0,1.30799 -1.08213,1.98302 -2.36063,1.98302h-1.45969v2.13872h-0.67863zM238.66459,43.00458c0.99573,0 1.64843,-0.53629 1.64843,-1.33343v-0.01662c0,-0.86634 -0.64354,-1.31613 -1.614,-1.31613h-1.5193v2.66619z"
                fill="#ffffff" fill-opacity="1"></path>
        </g>
    </symbol>

    <symbol id="pin" viewBox="0 0 106 106">
        <defs>
            <mask id="3wjlb" width="2" height="2" x="-1" y="-1">
                <path fill="#fff" d="M18 18h70v70H18z" />
                <path d="M53 18c19.33 0 35 15.67 35 35S72.33 88 53 88 18 72.33 18 53s15.67-35 35-35z" />
            </mask>
            <filter id="3wjla" width="120" height="120" x="-7" y="-7" filterUnits="userSpaceOnUse">
                <feOffset in="SourceGraphic" result="FeOffset1030Out" />
                <feGaussianBlur in="FeOffset1030Out" result="FeGaussianBlur1031Out" stdDeviation="6 6" />
            </filter>
        </defs>
        <g>
            <g opacity=".9">
                <g opacity=".27">
                    <path fill="#fff" d="M53 0c29.271 0 53 23.729 53 53s-23.729 53-53 53S0 82.27 0 53 23.729 0 53 0z" />
                </g>
                <g opacity=".72">
                    <g filter="url(#3wjla)">
                        <path fill="none"
                            d="M53 18c19.33 0 35 15.67 35 35S72.33 88 53 88 18 72.33 18 53s15.67-35 35-35z"
                            mask="url(&quot;#3wjlb&quot;)" />
                        <path fill="#b0b0b0" fill-opacity=".25"
                            d="M53 18c19.33 0 35 15.67 35 35S72.33 88 53 88 18 72.33 18 53s15.67-35 35-35z" />
                    </g>
                    <path fill="#fff" d="M53 18c19.33 0 35 15.67 35 35S72.33 88 53 88 18 72.33 18 53s15.67-35 35-35z" />
                </g>
                <g opacity=".9">
                    <path fill="#7e5aff" d="M53 45a8 8 0 1 1 0 16 8 8 0 0 1 0-16z" />
                </g>
            </g>
        </g>
    </symbol>

    <symbol id="plus" viewBox="0 0 384 512">
        <path fill="currentColor"
            d="M376 232H216V72c0-4.42-3.58-8-8-8h-32c-4.42 0-8 3.58-8 8v160H8c-4.42 0-8 3.58-8 8v32c0 4.42 3.58 8 8 8h160v160c0 4.42 3.58 8 8 8h32c4.42 0 8-3.58 8-8V280h160c4.42 0 8-3.58 8-8v-32c0-4.42-3.58-8-8-8z"
            class=""></path>
    </symbol>

    <symbol id="twitter" viewBox="0 0 512 512">
        <path fill="currentColor"
            d="M459.37 151.716c.325 4.548.325 9.097.325 13.645 0 138.72-105.583 298.558-298.558 298.558-59.452 0-114.68-17.219-161.137-47.106 8.447.974 16.568 1.299 25.34 1.299 49.055 0 94.213-16.568 130.274-44.832-46.132-.975-84.792-31.188-98.112-72.772 6.498.974 12.995 1.624 19.818 1.624 9.421 0 18.843-1.3 27.614-3.573-48.081-9.747-84.143-51.98-84.143-102.985v-1.299c13.969 7.797 30.214 12.67 47.431 13.319-28.264-18.843-46.781-51.005-46.781-87.391 0-19.492 5.197-37.36 14.294-52.954 51.655 63.675 129.3 105.258 216.365 109.807-1.624-7.797-2.599-15.918-2.599-24.04 0-57.828 46.782-104.934 104.934-104.934 30.213 0 57.502 12.67 76.67 33.137 23.715-4.548 46.456-13.32 66.599-25.34-7.798 24.366-24.366 44.833-46.132 57.827 21.117-2.273 41.584-8.122 60.426-16.243-14.292 20.791-32.161 39.308-52.628 54.253z">
        </path>
    </symbol>

</svg>